<svg width="24" height="25" viewBox="0 0 24 25" fill="none" xmlns="http://www.w3.org/2000/svg">
<path d="M5.55279 10.9085C5.05881 10.6615 4.85858 10.0609 5.10557 9.5669C5.35256 9.07292 5.95324 8.87269 6.44721 9.11968L9.44721 10.6197C9.94119 10.8667 10.1414 11.4673 9.89443 11.9613C9.64744 12.4553 9.04676 12.6555 8.55279 12.4085L5.55279 10.9085Z" fill="black"/>
<path d="M5.55279 13.9085C5.05881 13.6615 4.85858 13.0609 5.10557 12.5669C5.35256 12.0729 5.95324 11.8727 6.44721 12.1197L9.44721 13.6197C9.94119 13.8667 10.1414 14.4673 9.89443 14.9613C9.64744 15.4553 9.04676 15.6555 8.55279 15.4085L5.55279 13.9085Z" fill="black"/>
<path d="M18.8944 9.5669C19.1414 10.0609 18.9412 10.6615 18.4472 10.9085L15.4472 12.4085C14.9532 12.6555 14.3526 12.4553 14.1056 11.9613C13.8586 11.4673 14.0588 10.8667 14.5528 10.6197L17.5528 9.11968C18.0468 8.87269 18.6474 9.07292 18.8944 9.5669Z" fill="black"/>
<path d="M18.8944 12.5669C19.1414 13.0609 18.9412 13.6615 18.4472 13.9085L15.4472 15.4085C14.9532 15.6555 14.3526 15.4553 14.1056 14.9613C13.8586 14.4673 14.0588 13.8667 14.5528 13.6197L17.5528 12.1197C18.0468 11.8727 18.6474 12.0729 18.8944 12.5669Z" fill="black"/>
<path fill-rule="evenodd" clip-rule="evenodd" d="M12 20.0141C12.3502 20.9508 12.3502 20.9508 12.3503 20.9507L12.3594 20.9473L12.3835 20.9382L12.4742 20.9038C12.5525 20.8739 12.6658 20.8303 12.8071 20.7749C13.0897 20.6642 13.4855 20.5061 13.9405 20.3158C14.844 19.9378 16.0062 19.4223 16.9787 18.8921C18.0587 18.3033 19.6546 17.6308 20.6095 17.2446C21.4414 16.9081 22 16.1006 22 15.1894V5.58331C22 4.14208 20.6204 3.06146 19.2006 3.49779C18.2643 3.78553 17.0382 4.18911 16.1008 4.59724C15.1215 5.02361 13.9538 5.67407 13.0529 6.20246C12.6398 6.44472 12.2753 6.66583 12 6.83524C11.7247 6.66583 11.3602 6.44472 10.9471 6.20246C10.0462 5.67407 8.8785 5.02361 7.89918 4.59724C6.96177 4.18911 5.73568 3.78553 4.79939 3.49779C3.37964 3.06146 2 4.14208 2 5.58331V15.1894C2 16.1006 2.55861 16.9081 3.39051 17.2446C4.34538 17.6308 5.94127 18.3033 7.02134 18.8921C7.99383 19.4223 9.15605 19.9378 10.0595 20.3158C10.5145 20.5061 10.9103 20.6642 11.1929 20.7749C11.3342 20.8303 11.4475 20.8739 11.5258 20.9038L11.6165 20.9382L11.6406 20.9473L11.649 20.9505C11.649 20.9505 11.6498 20.9508 12 20.0141ZM4.21185 5.40954C4.12004 5.38132 4 5.4432 4 5.58331V15.1894C4 15.2719 4.05132 15.3545 4.14048 15.3905C5.0946 15.7765 6.78695 16.4864 7.97866 17.1361C8.86058 17.6169 9.94836 18.1013 10.8313 18.4707C10.8885 18.4946 10.9448 18.518 11 18.5409V8.56825C10.7294 8.40129 10.3584 8.17581 9.9353 7.92763C9.04701 7.40664 7.96473 6.80711 7.10082 6.43098C6.2725 6.07035 5.13671 5.69377 4.21185 5.40954ZM13 8.56825V18.5409C13.0552 18.518 13.1115 18.4946 13.1687 18.4707C14.0516 18.1013 15.1394 17.6169 16.0213 17.1361C17.2131 16.4864 18.9054 15.7765 19.8595 15.3905C19.9487 15.3545 20 15.2719 20 15.1894V5.58331C20 5.4432 19.88 5.38132 19.7881 5.40954C18.8633 5.69377 17.7275 6.07035 16.8992 6.43098C16.0353 6.80711 14.953 7.40664 14.0647 7.92763C13.6416 8.17581 13.2706 8.40129 13 8.56825Z" fill="black"/>
<path d="M12 20.0141L12.3503 20.9507C12.1245 21.0352 11.8748 21.0349 11.649 20.9505L12 20.0141Z" fill="black"/>
</svg>
