<svg width="34" height="34" viewBox="0 0 34 34" fill="none" xmlns="http://www.w3.org/2000/svg">
<path fill-rule="evenodd" clip-rule="evenodd" d="M14.0666 4.01155C11.911 1.85597 8.41614 1.85597 6.26056 4.01155L5.52156 4.75055C4.50266 5.76945 3.80576 7.2963 4.20327 8.95028C4.81266 11.4859 6.64644 16.1065 12.1151 21.5752C17.5838 27.0438 22.2044 28.8776 24.74 29.487C26.394 29.8845 27.9208 29.1876 28.9397 28.1687L29.6787 27.4297C31.8343 25.2741 31.8343 21.7792 29.6787 19.6237L28.3969 18.3419C26.6399 16.5849 23.9255 16.2184 21.7655 17.4467L21.6323 17.5224C20.7472 18.0257 19.7303 17.9846 19.0099 17.4633C18.4287 17.0426 17.8731 16.5999 17.4818 16.2085C17.0904 15.8171 16.6477 15.2616 16.227 14.6803C15.7057 13.96 15.6645 12.9431 16.1679 12.058L16.2436 11.9248C17.4718 9.76477 17.1054 7.05035 15.3484 5.29334L14.0666 4.01155ZM8.21207 5.96307C9.28986 4.88528 11.0373 4.88528 12.1151 5.96307L13.3969 7.24485C14.2754 8.12335 14.4586 9.48057 13.8445 10.5606L13.7687 10.6938C12.796 12.4044 12.7619 14.5997 13.9912 16.2984C14.4428 16.9223 14.9855 17.6152 15.5302 18.16C16.075 18.7048 16.7679 19.2475 17.3919 19.699C19.0906 20.9284 21.2859 20.8942 22.9965 19.9215L23.1297 19.8458C24.2097 19.2317 25.5669 19.4149 26.4454 20.2934L27.7272 21.5752C28.805 22.653 28.805 24.4004 27.7272 25.4782L26.9882 26.2172C26.4544 26.751 25.866 26.9192 25.3849 26.8036C23.3577 26.3164 19.1857 24.7427 14.0666 19.6237C8.94753 14.5046 7.37391 10.3325 6.88671 8.30536C6.77109 7.82426 6.93924 7.23589 7.47307 6.70207L8.21207 5.96307Z" fill="#239DEA"/>
</svg>
