<svg width="40" height="40" viewBox="0 0 40 40" fill="none" xmlns="http://www.w3.org/2000/svg">
<path d="M26.1253 17.8958C26.8041 17.2741 26.8504 16.2198 26.2288 15.541C25.6071 14.8622 24.5528 14.8159 23.874 15.4376L17.7205 21.0733L16.1253 19.6123C15.4465 18.9907 14.3923 19.037 13.7706 19.7158C13.1489 20.3946 13.1952 21.4488 13.874 22.0705L16.5949 24.5625C17.2319 25.1459 18.2092 25.1459 18.8462 24.5625L26.1253 17.8958Z" fill="black"/>
<path fill-rule="evenodd" clip-rule="evenodd" d="M19.9997 3.33337C10.7949 3.33337 3.33301 10.7953 3.33301 20C3.33301 29.2048 10.7949 36.6667 19.9997 36.6667C29.2044 36.6667 36.6663 29.2048 36.6663 20C36.6663 10.7953 29.2044 3.33337 19.9997 3.33337ZM6.66634 20C6.66634 12.6362 12.6359 6.66671 19.9997 6.66671C27.3635 6.66671 33.333 12.6362 33.333 20C33.333 27.3638 27.3635 33.3334 19.9997 33.3334C12.6359 33.3334 6.66634 27.3638 6.66634 20Z" fill="black"/>
</svg>
