<svg width="40" height="40" viewBox="0 0 40 40" fill="none" xmlns="http://www.w3.org/2000/svg">
<path fill-rule="evenodd" clip-rule="evenodd" d="M19.167 3.33331C12.2634 3.33331 6.66699 8.92975 6.66699 15.8333C6.66699 16.0004 6.67028 16.1669 6.6768 16.3326C3.68446 18.059 1.66699 21.2923 1.66699 25C1.66699 30.5228 6.14414 35 11.667 35H26.667C33.1103 35 38.3337 29.7766 38.3337 23.3333C38.3337 18.5125 35.4107 14.3783 31.2442 12.5993C29.8184 7.26331 24.9532 3.33331 19.167 3.33331ZM10.0003 15.8333C10.0003 10.7707 14.1044 6.66665 19.167 6.66665C23.6515 6.66665 27.387 9.88861 28.1787 14.1444C28.2897 14.7412 28.7164 15.2305 29.2926 15.4216C32.6105 16.522 35.0003 19.6507 35.0003 23.3333C35.0003 27.9357 31.2694 31.6666 26.667 31.6666H11.667C7.98509 31.6666 5.00033 28.6819 5.00033 25C5.00033 22.2377 6.68062 19.8641 9.08141 18.8528C9.77614 18.5601 10.1879 17.8376 10.0856 17.0907C10.0295 16.6804 10.0003 16.2607 10.0003 15.8333Z" fill="black"/>
</svg>
