<svg width="40" height="40" viewBox="0 0 40 40" fill="none" xmlns="http://www.w3.org/2000/svg">
<path d="M25.7366 8.89394C26.0461 8.02709 25.5944 7.0734 24.7276 6.76381C23.8607 6.45422 22.907 6.90597 22.5974 7.77282L14.2641 31.1062C13.9545 31.973 14.4062 32.9267 15.2731 33.2363C16.1399 33.5459 17.0936 33.0941 17.4032 32.2273L25.7366 8.89394Z" fill="black"/>
<path d="M14.7204 12.4089C15.231 13.1748 15.024 14.2095 14.2582 14.7201L6.33828 20L14.2582 25.28C15.024 25.7906 15.231 26.8253 14.7204 27.5912C14.2098 28.3571 13.175 28.5641 12.4092 28.0535L2.40916 21.3868C1.94549 21.0777 1.66699 20.5573 1.66699 20C1.66699 19.4428 1.94549 18.9224 2.40916 18.6133L12.4092 11.9466C13.175 11.436 14.2098 11.643 14.7204 12.4089Z" fill="black"/>
<path d="M25.2802 12.4089C24.7697 13.1748 24.9766 14.2095 25.7425 14.7201L33.6624 20L25.7425 25.28C24.9766 25.7906 24.7697 26.8253 25.2802 27.5912C25.7908 28.3571 26.8256 28.5641 27.5915 28.0535L37.5915 21.3868C38.0552 21.0777 38.3337 20.5573 38.3337 20C38.3337 19.4428 38.0552 18.9224 37.5915 18.6133L27.5915 11.9466C26.8256 11.436 25.7908 11.643 25.2802 12.4089Z" fill="black"/>
</svg>
