<svg width="44" height="45" viewBox="0 0 44 45" fill="none" xmlns="http://www.w3.org/2000/svg">
<rect x="1" y="1.63379" width="42" height="42" rx="7" fill="#239DEA"/>
<rect x="1" y="1.63379" width="42" height="42" rx="7" stroke="#1D83C3" stroke-width="2"/>
<path fill-rule="evenodd" clip-rule="evenodd" d="M14.6005 13.4006C15.0976 13.7427 15.4839 14.2749 15.7592 14.9218C15.817 14.9365 15.8794 14.9522 15.9459 14.9687C16.3762 15.0759 16.9785 15.2189 17.6649 15.3617C19.0568 15.6514 20.723 15.9249 22 15.9249C23.277 15.9249 24.9432 15.6514 26.3351 15.3617C27.0215 15.2189 27.6238 15.0759 28.0542 14.9687C28.1206 14.9522 28.183 14.9365 28.2408 14.9218C28.5161 14.2749 28.9024 13.7427 29.3996 13.4006C30.0743 12.9364 30.9181 12.8652 31.6431 13.3237C32.305 13.7424 32.6994 14.4946 32.8775 15.3348C33.0597 16.1939 33.045 17.2585 32.791 18.4976L32.75 18.6977L32.6338 18.8657C32.431 19.1589 32.1107 19.6901 31.845 20.2815C31.5692 20.8955 31.4057 21.4586 31.4057 21.8531C31.4057 22.4054 30.958 22.8531 30.4057 22.8531C29.8534 22.8531 29.4057 22.4054 29.4057 21.8531C29.4057 21.0283 29.7107 20.1519 30.0206 19.462C30.295 18.8512 30.6152 18.2957 30.8685 17.9075C31.0442 16.955 31.0249 16.2399 30.921 15.7496C30.8127 15.2391 30.6363 15.0601 30.5823 15.0198C30.5711 15.0248 30.5548 15.0335 30.5333 15.0483C30.4068 15.1353 30.1704 15.3948 29.9792 15.977L29.9708 16.036C29.9572 16.1304 29.9368 16.2668 29.909 16.4393C29.8535 16.7842 29.7685 17.2741 29.6491 17.8609C29.4112 19.0311 29.0341 20.6031 28.4779 22.1848C27.926 23.7545 27.1758 25.3983 26.1647 26.6676C25.4533 27.5607 24.5646 28.3241 23.4837 28.7L24.8973 31.5726C25.0498 31.8825 25.0315 32.2492 24.849 32.5425C24.6664 32.8358 24.3455 33.0141 24 33.0141H20C19.6546 33.0141 19.3336 32.8358 19.151 32.5425C18.9685 32.2492 18.9502 31.8825 19.1028 31.5726L20.5163 28.7C19.4354 28.3241 18.5467 27.5607 17.8353 26.6676C16.8242 25.3983 16.0741 23.7545 15.5221 22.1848C14.9659 20.6031 14.5888 19.0311 14.3509 17.8609C14.2316 17.2741 14.1465 16.7842 14.091 16.4393C14.0632 16.2668 14.0428 16.1304 14.0292 16.036L14.0208 15.977C13.8296 15.3948 13.5932 15.1353 13.4667 15.0483C13.4453 15.0335 13.4289 15.0248 13.4177 15.0198C13.3637 15.0601 13.1873 15.2391 13.079 15.7496C12.9751 16.2399 12.9558 16.955 13.1315 17.9075C13.3848 18.2957 13.705 18.8512 13.9794 19.462C14.2893 20.1519 14.5943 21.0283 14.5943 21.8531C14.5943 22.4054 14.1466 22.8531 13.5943 22.8531C13.042 22.8531 12.5943 22.4054 12.5943 21.8531C12.5943 21.4586 12.4308 20.8955 12.155 20.2815C11.8894 19.6901 11.569 19.1589 11.3662 18.8657L11.25 18.6977L11.209 18.4976C10.955 17.2585 10.9404 16.1939 11.1225 15.3348C11.3006 14.4946 11.695 13.7424 12.3569 13.3237C13.0819 12.8652 13.9257 12.9364 14.6005 13.4006ZM26.7426 17.3198C27.1097 17.2434 27.4534 17.167 27.7618 17.0957C27.7393 17.2127 27.7151 17.3351 27.6892 17.4625C27.4623 18.5785 27.1068 20.0549 26.5911 21.5214C26.0712 23 25.4105 24.4045 24.6004 25.4215C23.7931 26.4349 22.9359 26.9497 22 26.9497C21.0641 26.9497 20.2069 26.4349 19.3996 25.4215C18.5895 24.4045 17.9288 23 17.4089 21.5214C16.8932 20.0549 16.5377 18.5785 16.3108 17.4625C16.2849 17.3351 16.2607 17.2127 16.2382 17.0957C16.5466 17.167 16.8903 17.2434 17.2574 17.3198C18.6729 17.6143 20.5067 17.9249 22 17.9249C23.4933 17.9249 25.3271 17.6143 26.7426 17.3198ZM22.3934 31.0141L22 30.2146L21.6066 31.0141H22.3934Z" fill="white"/>
</svg>
