<svg width="25" height="25" viewBox="0 0 25 25" fill="none" xmlns="http://www.w3.org/2000/svg">
<path fill-rule="evenodd" clip-rule="evenodd" d="M9.50001 2.01416C9.43416 2.01416 9.36846 2.02066 9.30389 2.03358L5.36625 2.82111C4.37213 3.01993 3.54568 3.70739 3.16917 4.64868L1.57153 8.64277C1.44192 8.9668 1.49061 9.33497 1.70001 9.61416L10.1 20.8142C10.6666 21.5696 11.5557 22.0142 12.5 22.0142C13.4443 22.0142 14.3334 21.5696 14.9 20.8142L23.3 9.61416C23.5094 9.33497 23.5581 8.9668 23.4285 8.64277L21.8308 4.64868C21.4543 3.70739 20.6279 3.01993 19.6338 2.82111L15.6961 2.03358C15.6316 2.02066 15.5659 2.01416 15.5 2.01416H9.50001ZM20.1296 10.508L15.673 16.4501L18.1984 10.8943L20.1296 10.508ZM21.125 8.26935L18.2082 8.85272L16.9121 4.31638L19.2415 4.78227C19.5729 4.84854 19.8484 5.0777 19.9739 5.39146L21.125 8.26935ZM8.82574 9.01416L10.2543 4.01416H14.7457L16.1743 9.01416H8.82574ZM12.5 18.5976L9.05301 11.0142H15.947L12.5 18.5976ZM9.327 16.4501L6.80161 10.8943L4.87042 10.508L9.327 16.4501ZM5.02612 5.39146L3.87497 8.26935L6.79183 8.85272L8.08793 4.31638L5.75848 4.78227C5.42711 4.84854 5.15163 5.0777 5.02612 5.39146Z" fill="black"/>
</svg>
