<svg width="44" height="45" viewBox="0 0 44 45" fill="none" xmlns="http://www.w3.org/2000/svg">
<rect x="1" y="1.63379" width="42" height="42" rx="7" fill="#239DEA"/>
<rect x="1" y="1.63379" width="42" height="42" rx="7" stroke="#1D83C3" stroke-width="2"/>
<path fill-rule="evenodd" clip-rule="evenodd" d="M22 12.0142C15.9249 12.0142 11 16.939 11 23.0142C11 29.0893 15.9249 34.0142 22 34.0142C28.0751 34.0142 33 29.0893 33 23.0142C33 16.939 28.0751 12.0142 22 12.0142ZM14.1593 22.3165L13.0008 22.8957C13.0278 20.7984 13.7723 18.874 15 17.3568V19.3741L14.1593 22.3165ZM17 15.5297C18.4301 14.5724 20.1499 14.0142 22 14.0142C26.8348 14.0142 30.7791 17.8264 30.991 22.6089L27.5448 26.0551L27.0554 30.4613C25.6144 31.4414 23.8741 32.0142 22 32.0142C17.7189 32.0142 14.136 29.0251 13.2243 25.02L15.8407 23.7119L16.2172 22.3939C16.0734 23.2235 16.4611 24.1127 17.2937 24.5291L19.5403 25.6524L19.7749 29.1713C19.9078 31.1649 22.56 31.7528 23.5229 30.0021L27.1568 23.3951C27.4356 22.8881 27.4812 22.2852 27.2818 21.7421L26.442 19.454C26.1086 18.5458 25.1728 18.0064 24.2197 18.1732L19.6389 18.9747C19.2338 19.0456 18.8603 19.2397 18.5694 19.5305L16.774 21.326C16.5762 21.5237 16.4301 21.7492 16.3332 21.988L17 19.6542V15.5297ZM29.4552 26.9732L30.5268 25.9015C30.2386 26.7529 29.8265 27.5472 29.3119 28.2628L29.4552 26.9732ZM20.4348 23.8635L18.1882 22.7402L19.9836 20.9447L24.5644 20.1432L25.4043 22.4313L21.7705 29.0382L21.5359 25.5193C21.4887 24.8111 21.0696 24.1809 20.4348 23.8635Z" fill="white"/>
</svg>
