<svg width="44" height="45" viewBox="0 0 44 45" fill="none" xmlns="http://www.w3.org/2000/svg">
<rect x="1" y="1.63379" width="42" height="42" rx="7" fill="#239DEA"/>
<rect x="1" y="1.63379" width="42" height="42" rx="7" stroke="#1D83C3" stroke-width="2"/>
<path fill-rule="evenodd" clip-rule="evenodd" d="M19 13.0142C18.9342 13.0142 18.8685 13.0207 18.8039 13.0336L14.8662 13.8211C13.8721 14.0199 13.0457 14.7074 12.6692 15.6487L11.0715 19.6428C10.9419 19.9668 10.9906 20.335 11.2 20.6142L19.6 31.8142C20.1666 32.5696 21.0557 33.0142 22 33.0142C22.9443 33.0142 23.8334 32.5696 24.4 31.8142L32.8 20.6142C33.0094 20.335 33.0581 19.9668 32.9285 19.6428L31.3308 15.6487C30.9543 14.7074 30.1279 14.0199 29.1338 13.8211L25.1961 13.0336C25.1316 13.0207 25.0659 13.0142 25 13.0142H19ZM29.6296 21.508L25.173 27.4501L27.6984 21.8943L29.6296 21.508ZM30.625 19.2693L27.7082 19.8527L26.4121 15.3164L28.7415 15.7823C29.0729 15.8485 29.3484 16.0777 29.4739 16.3915L30.625 19.2693ZM18.3257 20.0142L19.7543 15.0142H24.2457L25.6743 20.0142H18.3257ZM22 29.5976L18.553 22.0142H25.447L22 29.5976ZM18.827 27.4501L16.3016 21.8943L14.3704 21.508L18.827 27.4501ZM14.5261 16.3915L13.375 19.2693L16.2918 19.8527L17.5879 15.3164L15.2585 15.7823C14.9271 15.8485 14.6516 16.0777 14.5261 16.3915Z" fill="white"/>
</svg>
