<svg width="24" height="25" viewBox="0 0 24 25" fill="none" xmlns="http://www.w3.org/2000/svg">
<path d="M13 15.0142C13 14.4619 12.5523 14.0142 12 14.0142C11.4477 14.0142 11 14.4619 11 15.0142V17.0142C11 17.5664 11.4477 18.0142 12 18.0142C12.5523 18.0142 13 17.5664 13 17.0142V15.0142Z" fill="black"/>
<path fill-rule="evenodd" clip-rule="evenodd" d="M18 7.01416C18 3.70045 15.3137 1.01416 12 1.01416C8.68629 1.01416 6 3.70045 6 7.01416V9.01416C3.79086 9.01416 2 10.805 2 13.0142V19.0142C2 21.2233 3.79086 23.0142 6 23.0142H18C20.2091 23.0142 22 21.2233 22 19.0142V13.0142C22 10.805 20.2091 9.01416 18 9.01416V7.01416ZM8 7.01416C8 4.80502 9.79086 3.01416 12 3.01416C14.2091 3.01416 16 4.80502 16 7.01416V9.01416H8V7.01416ZM4 13.0142C4 11.9096 4.89543 11.0142 6 11.0142H18C19.1046 11.0142 20 11.9096 20 13.0142V19.0142C20 20.1187 19.1046 21.0142 18 21.0142H6C4.89543 21.0142 4 20.1187 4 19.0142V13.0142Z" fill="black"/>
</svg>
