<svg width="34" height="34" viewBox="0 0 34 34" fill="none" xmlns="http://www.w3.org/2000/svg">
<path fill-rule="evenodd" clip-rule="evenodd" d="M26.6613 29.1158C29.7098 29.1158 32.1811 26.6446 32.1811 23.5961V11.2081C32.1815 11.187 32.1815 11.1658 32.1811 11.1446V9.79683C32.1811 6.74837 29.7098 4.27711 26.6613 4.27711H7.34235C4.29389 4.27711 1.82263 6.74837 1.82263 9.79683V11.1446C1.82214 11.1658 1.82214 11.187 1.82263 11.2081V23.5961C1.82263 26.6446 4.29389 29.1158 7.34235 29.1158H26.6613ZM4.58249 23.5961C4.58249 25.1203 5.81812 26.356 7.34235 26.356H26.6613C28.1856 26.356 29.4212 25.1203 29.4212 23.5961V13.215L19.0518 17.3627C17.7359 17.8891 16.2678 17.8891 14.9519 17.3627L4.58249 13.215V23.5961ZM18.0268 14.8002L29.4212 10.2425V9.79683C29.4212 8.2726 28.1856 7.03697 26.6613 7.03697H7.34235C5.81812 7.03697 4.58249 8.2726 4.58249 9.79683V10.2425L15.9769 14.8002C16.6348 15.0634 17.3688 15.0634 18.0268 14.8002Z" fill="#239DEA"/>
</svg>
