<svg width="34" height="34" viewBox="0 0 34 34" fill="none" xmlns="http://www.w3.org/2000/svg">
<path fill-rule="evenodd" clip-rule="evenodd" d="M16.9988 7.72695C13.5692 7.72695 10.7891 10.5071 10.7891 13.9366C10.7891 17.3661 13.5692 20.1463 16.9988 20.1463C20.4283 20.1463 23.2084 17.3661 23.2084 13.9366C23.2084 10.5071 20.4283 7.72695 16.9988 7.72695ZM13.5489 13.9366C13.5489 12.0313 15.0935 10.4868 16.9988 10.4868C18.904 10.4868 20.4486 12.0313 20.4486 13.9366C20.4486 15.8419 18.904 17.3864 16.9988 17.3864C15.0935 17.3864 13.5489 15.8419 13.5489 13.9366Z" fill="#239DEA"/>
<path fill-rule="evenodd" clip-rule="evenodd" d="M11.2158 5.09403C14.7177 2.75945 19.2798 2.75945 22.7817 5.09403C27.5161 8.25029 28.8453 14.6197 25.7683 19.406L20.481 27.6307C18.8515 30.1656 15.146 30.1656 13.5165 27.6307L8.22917 19.406C5.15224 14.6197 6.48142 8.25029 11.2158 5.09403ZM12.7467 7.39037C15.3215 5.67381 18.676 5.67381 21.2508 7.39037C24.7319 9.71108 25.7092 14.3944 23.4468 17.9136L18.1595 26.1383C17.6163 26.9832 16.3812 26.9832 15.838 26.1383L10.5507 17.9136C8.28832 14.3944 9.26562 9.71108 12.7467 7.39037Z" fill="#239DEA"/>
</svg>
