<svg width="44" height="45" viewBox="0 0 44 45" fill="none" xmlns="http://www.w3.org/2000/svg">
<rect x="1" y="1.63379" width="42" height="42" rx="7" fill="#239DEA"/>
<rect x="1" y="1.63379" width="42" height="42" rx="7" stroke="#1D83C3" stroke-width="2"/>
<path d="M23 24.0142C23 23.4619 22.5523 23.0142 22 23.0142C21.4477 23.0142 21 23.4619 21 24.0142V26.0142C21 26.5664 21.4477 27.0142 22 27.0142C22.5523 27.0142 23 26.5664 23 26.0142V24.0142Z" fill="white"/>
<path fill-rule="evenodd" clip-rule="evenodd" d="M28 16.0142C28 12.7005 25.3137 10.0142 22 10.0142C18.6863 10.0142 16 12.7005 16 16.0142V18.0142C13.7909 18.0142 12 19.805 12 22.0142V28.0142C12 30.2233 13.7909 32.0142 16 32.0142H28C30.2091 32.0142 32 30.2233 32 28.0142V22.0142C32 19.805 30.2091 18.0142 28 18.0142V16.0142ZM18 16.0142C18 13.805 19.7909 12.0142 22 12.0142C24.2091 12.0142 26 13.805 26 16.0142V18.0142H18V16.0142ZM14 22.0142C14 20.9096 14.8954 20.0142 16 20.0142H28C29.1046 20.0142 30 20.9096 30 22.0142V28.0142C30 29.1187 29.1046 30.0142 28 30.0142H16C14.8954 30.0142 14 29.1187 14 28.0142V22.0142Z" fill="white"/>
</svg>
