<svg width="16" height="17" viewBox="0 0 16 17" fill="none" xmlns="http://www.w3.org/2000/svg">
<path d="M3.28298 6.96705C3.05739 6.2903 2.52634 5.75924 1.84958 5.53366C1.16082 5.30407 1.16082 4.32984 1.84958 4.10026C2.52634 3.87467 3.05739 3.34362 3.28298 2.66686C3.51256 1.9781 4.48679 1.9781 4.71637 2.66686C4.94196 3.34362 5.47301 3.87467 6.14977 4.10026C6.83853 4.32984 6.83853 5.30407 6.14977 5.53366C5.47301 5.75924 4.94196 6.2903 4.71637 6.96705C4.48679 7.65581 3.51256 7.65581 3.28298 6.96705Z" fill="#F3A218"/>
<path d="M8.74545 14.5796C8.35067 13.3953 7.42133 12.466 6.237 12.0712C5.03168 11.6694 5.03168 9.96451 6.237 9.56273C7.42133 9.16796 8.35067 8.23861 8.74545 7.05428C9.14723 5.84896 10.8521 5.84896 11.2539 7.05428C11.6487 8.23861 12.578 9.16796 13.7623 9.56273C14.9677 9.96451 14.9677 11.6694 13.7623 12.0712C12.578 12.466 11.6487 13.3953 11.2539 14.5796C10.8521 15.785 9.14723 15.785 8.74545 14.5796Z" fill="#F3A218"/>
</svg>
