<svg width="40" height="40" viewBox="0 0 40 40" fill="none" xmlns="http://www.w3.org/2000/svg">
<path fill-rule="evenodd" clip-rule="evenodd" d="M20.0007 8.33337C16.3188 8.33337 13.334 11.3181 13.334 15C13.334 18.6819 16.3188 21.6667 20.0007 21.6667C23.6826 21.6667 26.6674 18.6819 26.6674 15C26.6674 11.3181 23.6826 8.33337 20.0007 8.33337ZM16.6674 15C16.6674 13.1591 18.1597 11.6667 20.0007 11.6667C21.8416 11.6667 23.334 13.1591 23.334 15C23.334 16.841 21.8416 18.3334 20.0007 18.3334C18.1597 18.3334 16.6674 16.841 16.6674 15Z" fill="#101928"/>
<path fill-rule="evenodd" clip-rule="evenodd" d="M20.0007 36.6667C18.1059 36.6667 15.3738 36.2189 13.3004 35.266C12.2834 34.7986 11.1921 34.1054 10.5484 33.0682C10.2085 32.5207 9.99384 31.8752 10.0009 31.1568C10.0078 30.4453 10.231 29.7706 10.5963 29.1522C12.2671 26.3246 15.7333 23.3334 20.0007 23.3334C24.2681 23.3334 27.7343 26.3246 29.405 29.1522C29.7704 29.7706 29.9936 30.4453 30.0005 31.1568C30.0076 31.8752 29.7928 32.5207 29.453 33.0682C28.8093 34.1054 27.718 34.7986 26.7009 35.266C24.6276 36.2189 21.8955 36.6667 20.0007 36.6667ZM13.4661 30.8479C13.3385 31.0639 13.3342 31.1712 13.334 31.1894C13.3339 31.2015 13.3335 31.2346 13.3806 31.3105C13.5129 31.5237 13.8972 31.8718 14.6923 32.2372C16.2434 32.95 18.4821 33.3334 20.0007 33.3334C21.5193 33.3334 23.758 32.95 25.3091 32.2372C26.1042 31.8718 26.4885 31.5237 26.6208 31.3105C26.6679 31.2346 26.6675 31.2023 26.6674 31.1903C26.6672 31.172 26.6629 31.0639 26.5353 30.8479C25.2399 28.6557 22.7065 26.6667 20.0007 26.6667C17.2948 26.6667 14.7615 28.6557 13.4661 30.8479Z" fill="#101928"/>
<path fill-rule="evenodd" clip-rule="evenodd" d="M4.16736 20C4.16736 17.2386 6.40594 15 9.16736 15C11.9288 15 14.1674 17.2386 14.1674 20C14.1674 22.7615 11.9288 25 9.16736 25C6.40594 25 4.16736 22.7615 4.16736 20ZM9.16736 18.3334C8.24689 18.3334 7.50069 19.0796 7.50069 20C7.50069 20.9205 8.24689 21.6667 9.16736 21.6667C10.0878 21.6667 10.834 20.9205 10.834 20C10.834 19.0796 10.0878 18.3334 9.16736 18.3334Z" fill="#101928"/>
<path d="M4.82692 32.4077C4.41768 33.2322 3.41754 33.5688 2.59304 33.1596C1.76854 32.7504 1.4319 31.7502 1.84114 30.9257C2.45345 29.6921 3.38024 28.4535 4.54611 27.5058C5.71243 26.5577 7.20698 25.8334 8.91265 25.8334C9.83312 25.8334 10.5793 26.5796 10.5793 27.5C10.5793 28.4205 9.83312 29.1667 8.91265 29.1667C8.17768 29.1667 7.40199 29.48 6.6487 30.0923C5.89495 30.705 5.25276 31.5497 4.82692 32.4077Z" fill="#101928"/>
<path fill-rule="evenodd" clip-rule="evenodd" d="M26.3508 20C26.3508 17.2386 28.5894 15 31.3508 15C34.1122 15 36.3508 17.2386 36.3508 20C36.3508 22.7615 34.1122 25 31.3508 25C28.5894 25 26.3508 22.7615 26.3508 20ZM31.3508 18.3334C30.4303 18.3334 29.6841 19.0796 29.6841 20C29.6841 20.9205 30.4303 21.6667 31.3508 21.6667C32.2713 21.6667 33.0175 20.9205 33.0175 20C33.0175 19.0796 32.2713 18.3334 31.3508 18.3334Z" fill="#101928"/>
<path d="M38.1676 30.9257C38.5768 31.7502 38.2402 32.7504 37.4157 33.1596C36.5912 33.5688 35.591 33.2322 35.1818 32.4077C34.756 31.5497 34.1138 30.705 33.36 30.0923C32.6067 29.48 31.831 29.1667 31.0961 29.1667C30.1756 29.1667 29.4294 28.4205 29.4294 27.5C29.4294 26.5796 30.1756 25.8334 31.0961 25.8334C32.8017 25.8334 34.2963 26.5577 35.4626 27.5058C36.6285 28.4535 37.5553 29.6921 38.1676 30.9257Z" fill="#101928"/>
</svg>
